<svg xmlns="http://www.w3.org/2000/svg" viewBox="0 0 737.9501 295.5451">
  <title>Olist logo</title>
  <g>
    <path d="M338.4034,287.5572V7.9879c0-4.4116,4.2533-7.9879,9.5-7.9879h0c5.2467,0,9.5,3.5763,9.5,7.9879V287.5572c0,4.4116-4.2533,7.9879-9.5,7.9879h0C342.6567,295.5451,338.4034,291.9688,338.4034,287.5572Z" fill="#fff"/>
    <path d="M406.4034,285.5451V100.0566a10,10,0,0,1,10-10h0a10,10,0,0,1,10,10V285.5451a10,10,0,0,1-10,10h0A10,10,0,0,1,406.4034,285.5451Z" fill="#fff"/>
    <path d="M595.6544,278.6283Q575.7479,295.55,547.89,295.5451q-42.3925,0-65.9733-34.096a10.17,10.17,0,0,1,3.1541-14.4873h0a10.2193,10.2193,0,0,1,13.6309,2.9937,64.09,64.09,0,0,0,15.3548,15.7374q12.4308,9.4562,33.8335,9.4527,46.7609,0,46.7691-39.8034,0-17.4106-16.42-30.3508a107.0357,107.0357,0,0,0-14.18-6.717q-9.2116-3.7306-22.6381-8.707-24.8862-8.9548-35.8235-17.911-15.9293-12.9342-15.9225-37.3164,0-20.8966,15.9225-35.8235,15.4158-15.4179,40.3006-15.424,28.09,0,49.1849,15.9876a9.8265,9.8265,0,0,1,.53,15.2607h0a9.7629,9.7629,0,0,1-12.3059.42q-15.42-11.7633-37.4086-11.7676-35.8236,0-35.8235,31.3464a28.2618,28.2618,0,0,0,10.9468,22.8867q8.9548,6.9744,28.36,13.434a292.1152,292.1152,0,0,1,27.8636,11.1954,110.007,110.007,0,0,1,16.4183,9.2041q21.3878,16.4184,21.3952,44.282Q615.0583,262.2107,595.6544,278.6283Z" fill="#fff"/>
    <path d="M690.4034,110.1678V285.3453a10.5332,10.5332,0,0,1-10.4177,10.2h0a9.3372,9.3372,0,0,1-9.5822-10.2V110.1678h-18.28a9.7823,9.7823,0,0,1-10.2-9.9114h0a10.0357,10.0357,0,0,1,10.2-10.0886h18.28V10.2A9.3372,9.3372,0,0,1,679.9856,0h0a10.5332,10.5332,0,0,1,10.4177,10.2v79.968H727.75a10.0357,10.0357,0,0,1,10.2,10.0886h0a9.7822,9.7822,0,0,1-10.2,9.9114Z" fill="#fff"/>
    <path d="M151.0922.0366C66.988-1.817-1.8187,66.9908.0367,151.094c1.736,78.6952,65.717,142.6765,144.4121,144.4143,84.107,1.8574,152.9181-66.9536,151.0608-151.0606C293.7718,65.7518,229.7882,1.771,151.0922.0366ZM277.3514,143.47c2.4368,74.8815-58.9988,136.3171-133.88,133.88C75.5368,275.1394,20.4037,220.006,18.1948,152.0717,15.76,77.194,77.1912,15.7618,152.07,18.1947,220.005,20.402,275.1407,75.5349,277.3514,143.47Z" fill="#fff"/>
  </g>
</svg>
