<svg version="1" xmlns="http://www.w3.org/2000/svg" width="933.333" height="933.333" viewBox="0 0 700.000000 700.000000"><path d="M327.8.4c-.1.2-4.1.6-8.8 1-4.7.4-9.6.8-11 1-1.4.2-4.6.7-7.1 1-5.1.7-6.6 1-15.4 2.5-8.6 1.6-9.1 1.7-18.5 4.1-4.7 1.2-9.3 2.4-10.3 2.6-1 .2-6.9 2-13 4-85.2 27.7-155.8 85.4-199 162.5C30.4 204.8 19 232.6 12 259c-2 7.4-6.5 28.4-7.4 34.2-.3 2.1-.8 5.3-1.1 7.1-2.1 12.8-3 28.4-3 50.2 0 19.4.7 32.7 2 40.6.2 1.3.6 4.6 1 7.4 1.1 9.2 1.6 11.9 4.7 26 9.2 42.8 27.9 86 52.6 122 7.7 11.2 10.3 14.7 21.2 27.9 8.9 10.8 29.3 31.6 40.5 41.1 26.5 22.7 59.2 43 90.9 56.5 8.9 3.8 26.7 10.5 30.6 11.6.8.2 4.7 1.3 8.5 2.5 13.7 4.1 34 8.5 48.4 10.5 2.5.3 5.7.8 7.1 1 16.7 2.6 63.3 2.5 84.8-.2 8.3-1 29.3-4.7 34.7-6.1 3.3-.8 6.8-1.6 7.7-1.8 8.1-1.6 46.8-14.5 49.3-16.5.6-.4 2.1-1.1 3.5-1.5 4.1-1.2 31.6-15.2 40.4-20.5 38.8-23.4 75.1-56 101.8-91.5 27.4-36.4 48.9-81.8 59.3-125 3.5-14.6 6.9-32.8 8-43 .4-3.3.9-7.1 1.1-8.5.9-4.7 1.1-52.5.4-60.5-1.5-15.5-2.1-21-2.5-22.5-.2-.8-.7-3.5-1-6-4.9-34.4-19.5-76.6-39.1-112.6-18.1-33.4-49.1-71.7-76.6-94.9-3.9-3.3-7.6-6.5-8.2-7-2.4-2.3-21.5-16.4-28.6-21.2-44.9-30-102.6-51.1-153-55.9-3-.3-6.6-.8-8-1.1-2.7-.5-53.6-1.4-54.2-.9zM380 44.3c1.9.2 6.4.8 10 1.2 3.6.4 6.7.8 7 1 .4.2 2.6.6 5.1.9 5.3.7 7.1 1.1 12.4 2.4 2.2.6 5.3 1.3 6.9 1.6 6.7 1.2 26 7.3 39.1 12.3 88.8 34.5 157.1 108.7 184.1 200.2 3.4 11.3 7.7 30.6 8.8 39.1.3 2.5.8 5.4 1 6.6 2 10.2 2.9 54.2 1.4 68.9-6.7 65-31.6 123.4-73.4 171.8-15 17.3-27.7 29.1-49.9 46.5-2.5 2-20.4 14-24 16.1-40.1 23.7-83 38-128.5 42.8-9.8 1-47.1 1-58 0-11.4-1-18.5-2-25.5-3.3-1.1-.2-3.3-.7-5-1-13.9-2.5-42.6-10.8-53-15.4-1.1-.5-4.9-2.1-8.5-3.6-11-4.5-34.4-16.7-41.2-21.5-1.4-1.1-2.9-1.9-3.2-1.9-1.6 0-23.5-16.1-34.5-25.4-7.2-6.1-19.8-18.4-30.6-30-9-9.5-25.1-31.7-34.4-47.1-18.4-30.7-34.1-73-38.7-104.5-.3-1.9-.7-4.2-.9-5-.2-.8-.7-4.4-1-8-.4-3.6-.9-7.6-1.2-9-.9-4.5-1.1-49.3-.3-57 .5-4.1 1.2-10.2 1.6-13.5.3-3.3.7-6.2.9-6.5.2-.3.6-2.8 1-5.5.3-2.8 1.7-9.7 3.1-15.5 14.6-62.4 46-115.9 93.9-160.1 13.8-12.6 38.7-30.5 54.5-39.1 3.6-2 8.6-4.7 11.2-6.1 14.8-8.1 50.4-21.6 63.7-24.2.9-.2 3.4-.8 5.6-1.4 2.2-.5 5.6-1.3 7.5-1.6 1.9-.3 5.3-1 7.5-1.5s6.3-1.2 9-1.5c2.8-.4 5.7-.8 6.5-1 .8-.2 5.1-.7 9.5-1 4.4-.4 8.2-.8 8.4-1 .5-.6 47.7.2 52.1.8z"/></svg>